HIERARCHY
ROOT Hips
{
	OFFSET	0.000000	0.000000	0.000000
	CHANNELS 6 Xposition Yposition Zposition Zrotation Xrotation Yrotation
	JOINT LeftUpLeg
	{
		OFFSET	12.830505	-7.049846	-1.643436
		CHANNELS 3 Zrotation Xrotation Yrotation
		JOINT LeftLeg
		{
			OFFSET	0.620834	-39.957500	-1.919341
			CHANNELS 3 Zrotation Xrotation Yrotation
			JOINT LeftFoot
			{
				OFFSET	-0.413890	-44.704761	-3.870325
				CHANNELS 3 Zrotation Xrotation Yrotation
				JOINT LeftFootHeel
				{
					OFFSET	0.164738	-8.918193	-6.555130
					CHANNELS 3 Zrotation Xrotation Yrotation
					End Site
					{
						OFFSET	-0.604053	0.000000	21.044330
					}
				}
			}
		}
	}
	JOINT RightUpLeg
	{
		OFFSET	-12.830505	-7.049846	-1.643436
		CHANNELS 3 Zrotation Xrotation Yrotation
		JOINT RightLeg
		{
			OFFSET	-0.620834	-39.957500	-1.919341
			CHANNELS 3 Zrotation Xrotation Yrotation
			JOINT RightFoot
			{
				OFFSET	0.413890	-44.704761	-3.870325
				CHANNELS 3 Zrotation Xrotation Yrotation
				JOINT RightFootHeel
				{
					OFFSET	-0.164738	-8.918193	-6.555130
					CHANNELS 3 Zrotation Xrotation Yrotation
					End Site
					{
						OFFSET	0.604053	0.000000	21.044330
					}
				}
			}
		}
	}
	JOINT Spine
	{
		OFFSET	0.000000	12.498170	1.820647
		CHANNELS 3 Zrotation Xrotation Yrotation
		JOINT Spine1
		{
			OFFSET	0.000000	7.620000	0.000000
			CHANNELS 3 Zrotation Xrotation Yrotation
			JOINT LeftShoulder
			{
				OFFSET	9.167800	29.136339	-5.551221
				CHANNELS 3 Zrotation Xrotation Yrotation
				JOINT LeftArm
				{
					OFFSET	12.133453	-3.880866	1.461963
					CHANNELS 3 Zrotation Xrotation Yrotation
					JOINT LeftForeArm
					{
						OFFSET	2.507115	-31.664908	-1.069404
						CHANNELS 3 Zrotation Xrotation Yrotation
						JOINT LeftHand
						{
							OFFSET	4.116172	-24.512624	5.009439
							CHANNELS 3 Zrotation Xrotation Yrotation
							End Site
							{
								OFFSET	-0.213136	-10.931856	2.182134
							}
						}
					}
				}
			}
			JOINT RightShoulder
			{
				OFFSET	-9.167800	29.136339	-5.551221
				CHANNELS 3 Zrotation Xrotation Yrotation
				JOINT RightArm
				{
					OFFSET	-12.133453	-3.880866	1.461963
					CHANNELS 3 Zrotation Xrotation Yrotation
					JOINT RightForeArm
					{
						OFFSET	-2.507115	-31.664908	-1.069404
						CHANNELS 3 Zrotation Xrotation Yrotation
						JOINT RightHand
						{
							OFFSET	-4.116172	-24.512624	5.009439
							CHANNELS 3 Zrotation Xrotation Yrotation
							End Site
							{
								OFFSET	0.213136	-10.931856	2.182134
							}
						}
					}
				}
			}
			JOINT Neck
			{
				OFFSET	0.000000	32.926272	-3.635654
				CHANNELS 3 Zrotation Xrotation Yrotation
				JOINT Head
				{
					OFFSET	0.000000	12.481178	4.646143
					CHANNELS 3 Zrotation Xrotation Yrotation
					End Site
					{
						OFFSET	0.000000	17.715204	-2.222063
					}
				}
			}
		}
	}
}
MOTION
Frames:     10
Frame Time: 0.016667
0.000000	103.075325	0.000000	-0.066164	-0.395336	-0.551513	1.329722	4.659608	-2.193377	-0.947750	-7.861998	2.454404	-0.039738	3.551249	0.230399	0.	0.	0.	-0.205945	4.731665	2.471195	0.127076	-7.744074	-3.273378	-0.042075	3.434321	1.255276	0.	0.	0.	0.000000	0.000000	0.000001	-0.300583	-0.294566	0.403247	0.276306	0.025991	-0.363921	-0.386661	0.529535	0.509332	0.831675	0.521866	1.029121	-4.519813	1.764408	0.054800	0.512238	0.608435	-0.082259	0.444439	-1.273244	0.886655	0.839577	0.032203	-0.058042	3.515268	0.579811	0.862286	0.635408	1.530929	1.074488	-0.062522	1.361572	-0.600995	
0.004984	103.077583	-0.017216	-0.067280	-0.396543	-0.565676	1.322400	4.639586	-2.184745	-0.941649	-7.839035	2.451442	-0.039166	3.549953	0.239757	0.	0.	0.	-0.205579	4.726987	2.484443	0.127020	-7.738216	-3.272459	-0.042075	3.434321	1.255276	0.	0.	0.	0.000000	0.000000	0.000001	-0.315380	-0.290200	0.420045	0.292256	0.022639	-0.366621	-0.388700	0.528487	0.527299	0.833888	0.522635	1.011161	-4.526021	1.707173	0.057189	0.528216	0.605072	-0.084945	0.444439	-1.273244	0.886655	0.838519	0.016075	-0.055665	3.506200	0.579315	0.855156	0.638648	1.524947	1.074925	-0.049633	1.363949	-0.603770	
0.008045	103.079559	-0.030569	-0.069485	-0.400854	-0.580828	1.318778	4.628758	-2.181890	-0.937561	-7.821915	2.451687	-0.038393	3.548220	0.252286	0.	0.	0.	-0.204670	4.731266	2.499645	0.127020	-7.738216	-3.272459	-0.042075	3.434321	1.255276	0.	0.	0.	0.000000	0.000000	-0.000001	-0.329046	-0.282742	0.437829	0.293156	0.028160	-0.351831	-0.375843	0.518634	0.530403	0.834708	0.514368	0.997531	-4.526331	1.695034	0.052270	0.515434	0.581635	-0.060903	0.432815	-1.259953	0.854001	0.876697	0.012493	-0.034838	3.505442	0.551633	0.839015	0.658439	1.523889	1.091254	-0.057528	1.358500	-0.620151	
0.011712	103.082544	-0.045258	-0.074902	-0.414891	-0.595067	1.318129	4.627067	-2.180069	-0.933345	-7.804110	2.451263	-0.037593	3.546404	0.265370	0.	0.	0.	-0.200155	4.739657	2.512984	0.126969	-7.732550	-3.271536	-0.042075	3.434321	1.255276	0.	0.	0.	0.000000	0.000000	0.000000	-0.339056	-0.265644	0.454655	0.308482	0.024937	-0.354431	-0.378230	0.517426	0.551337	0.838427	0.506686	1.028800	-4.528903	1.684091	0.006693	0.525173	0.574470	-0.058259	0.417582	-1.259507	0.845630	0.885556	0.001048	-0.013973	3.507355	0.544657	0.828130	0.677855	1.542727	1.118735	-0.053776	1.372866	-0.650727	
0.011243	103.085479	-0.053393	-0.080602	-0.429814	-0.608953	1.317202	4.627223	-2.166959	-0.924115	-7.779404	2.439166	-0.043099	3.537197	0.279190	0.	0.	0.	-0.194137	4.732813	2.523278	0.126778	-7.710713	-3.268040	-0.042075	3.434321	1.255276	0.	0.	0.	0.000000	0.000000	-0.000001	-0.347391	-0.247941	0.470889	0.304845	0.032378	-0.336334	-0.362562	0.506215	0.549506	0.840973	0.506105	1.019418	-4.533280	1.667853	0.018830	0.528412	0.564029	-0.050625	0.412204	-1.254699	0.833286	0.886216	-0.012097	-0.006944	3.510800	0.542935	0.821294	0.685447	1.553743	1.127709	-0.029517	1.417820	-0.667228	
0.009073	103.088357	-0.059008	-0.086341	-0.444974	-0.621959	1.316089	4.627568	-2.151126	-0.912569	-7.751511	2.423815	-0.051219	3.525003	0.292977	0.	0.	0.	-0.188092	4.727341	2.532868	0.126593	-7.690009	-3.264715	-0.042075	3.434321	1.255276	0.	0.	0.	0.000000	0.000000	-0.000001	-0.348272	-0.231492	0.485026	0.311346	0.031010	-0.337433	-0.364278	0.505344	0.564582	0.843303	0.504023	1.022915	-4.535511	1.662405	0.011864	0.524998	0.555707	-0.042475	0.391524	-1.252859	0.819444	0.901402	-0.013341	-0.003131	3.514961	0.530891	0.816926	0.691161	1.566086	1.130027	-0.013132	1.456108	-0.675971	
0.007059	103.091099	-0.062763	-0.091156	-0.459032	-0.623885	1.314818	4.626169	-2.146293	-0.900337	-7.723807	2.412785	-0.059607	3.513406	0.302434	0.	0.	0.	-0.182061	4.721056	2.531397	0.126408	-7.669566	-3.261446	-0.042075	3.434321	1.255276	0.	0.	0.	0.000000	0.000000	-0.000001	-0.343603	-0.217394	0.486998	0.311346	0.031010	-0.337433	-0.364647	0.505153	0.567838	0.844031	0.502302	1.032401	-4.535322	1.658820	-0.007195	0.518169	0.550919	-0.036116	0.378404	-1.251396	0.810099	0.905201	-0.012545	-0.001290	3.511680	0.519880	0.809717	0.690327	1.579829	1.133444	-0.010410	1.466147	-0.679157	
0.005047	103.093444	-0.067159	-0.094379	-0.468791	-0.622831	1.311981	4.619720	-2.144218	-0.886882	-7.697063	2.411536	-0.068323	3.503494	0.302135	0.	0.	0.	-0.177315	4.710253	2.526888	0.126223	-7.648912	-3.258133	-0.042075	3.434321	1.255276	0.	0.	0.	0.000000	0.000000	-0.000001	-0.340490	-0.207595	0.485976	0.311346	0.031010	-0.337433	-0.364647	0.505153	0.567838	0.844112	0.501847	1.035519	-4.534031	1.647409	-0.031241	0.518169	0.550919	-0.036116	0.368773	-1.252995	0.808633	0.898266	-0.024848	0.000968	3.514411	0.516786	0.802565	0.689448	1.594293	1.137042	-0.006785	1.478348	-0.682925	
0.002910	103.094917	-0.071335	-0.094379	-0.468791	-0.622831	1.305526	4.602434	-2.140580	-0.873113	-7.669244	2.410054	-0.077023	3.493592	0.301845	0.	0.	0.	-0.175731	4.689122	2.523354	0.126028	-7.627725	-3.254745	-0.042075	3.434321	1.255276	0.	0.	0.	0.000000	0.000000	-0.000001	-0.340490	-0.207595	0.485976	0.311346	0.031010	-0.337433	-0.364647	0.505153	0.567838	0.844112	0.501847	1.035519	-4.535294	1.635962	-0.030553	0.518169	0.550919	-0.036116	0.350389	-1.256048	0.805817	0.901535	-0.025021	0.002798	3.519833	0.504121	0.799329	0.688501	1.609520	1.140834	-0.006043	1.463106	-0.686694	
0.002054	103.095692	-0.073828	-0.094379	-0.468791	-0.622831	1.302143	4.593372	-2.138691	-0.866217	-7.655062	2.409254	-0.081246	3.488791	0.301690	0.	0.	0.	-0.175731	4.689122	2.523354	0.126028	-7.627725	-3.254745	-0.042075	3.434321	1.255276	0.	0.	0.	0.000000	0.000000	-0.000001	-0.340490	-0.207595	0.485976	0.311346	0.031010	-0.337433	-0.364647	0.505153	0.567838	0.844112	0.501847	1.035519	-4.535294	1.635962	-0.030553	0.518169	0.550919	-0.036116	0.350389	-1.256048	0.805817	0.901535	-0.025021	0.002798	3.519833	0.504121	0.799329	0.688501	1.609520	1.140834	-0.006043	1.463106	-0.686694	
